<?xml version="1.0" encoding="UTF-8" standalone="no"?>
<!-- Created with Inkscape (http://www.inkscape.org/) -->

<svg
   xmlns:dc="http://purl.org/dc/elements/1.1/"
   xmlns:cc="http://creativecommons.org/ns#"
   xmlns:rdf="http://www.w3.org/1999/02/22-rdf-syntax-ns#"
   xmlns:svg="http://www.w3.org/2000/svg"
   xmlns="http://www.w3.org/2000/svg"
   xmlns:sodipodi="http://sodipodi.sourceforge.net/DTD/sodipodi-0.dtd"
   xmlns:inkscape="http://www.inkscape.org/namespaces/inkscape"
   id="svg4206"
   version="1.1"
   inkscape:version="0.91 r13725"
   width="1991.2277"
   height="576.37415"
   viewBox="0 0 1991.2277 576.37415"
   sodipodi:docname="eagxprague-logo-single-color.svg">
  <metadata
     id="metadata4212">
    <rdf:RDF>
      <cc:Work
         rdf:about="">
        <dc:format>image/svg+xml</dc:format>
        <dc:type
           rdf:resource="http://purl.org/dc/dcmitype/StillImage" />
        <dc:title></dc:title>
      </cc:Work>
    </rdf:RDF>
  </metadata>
  <defs
     id="defs4210" />
  <sodipodi:namedview
     pagecolor="#ffffff"
     bordercolor="#666666"
     borderopacity="1"
     objecttolerance="10"
     gridtolerance="10"
     guidetolerance="10"
     inkscape:pageopacity="0"
     inkscape:pageshadow="2"
     inkscape:window-width="1053"
     inkscape:window-height="744"
     id="namedview4208"
     showgrid="false"
     inkscape:zoom="0.18141867"
     inkscape:cx="699.45045"
     inkscape:cy="-286.52638"
     inkscape:window-x="313"
     inkscape:window-y="24"
     inkscape:window-maximized="0"
     inkscape:current-layer="svg4206"
     fit-margin-top="0"
     fit-margin-left="0"
     fit-margin-right="0"
     fit-margin-bottom="0" />
  <path
     style="fill:#0b879e;fill-opacity:1"
     d="m 177.0616,0.02256195 c -2.15914,0.0305282 -4.12393,0.0935356 -5.69531,0.1894531 C 151.03243,1.4531951 132.6445,5.4826206 114.56746,12.65928 52.142975,37.44207 8.2589646,94.607412 0.667065,161.03233 c -0.88942,7.78191 -0.88942,33.61848 0,41.40039 3.69176,32.30086 15.95156,62.88871 35.6875,89.04102 1.95449,2.58992 4.58659,5.92515 5.84961,7.41015 4.62058,5.4327 8.829157,12.2157 13.367187,21.54492 4.56456,9.38379 7.455287,17.0941 10.972656,29.27344 2.962341,10.25745 5.711171,16.70688 9.712891,22.7832 9.45894,14.36268 22.750117,22.67539 40.960941,25.61719 3.60444,0.58227 5.388,0.64006 23.54883,0.75781 21.33863,0.13836 25.19451,-0.0315 29.65039,-1.30273 6.98853,-1.99383 13.15262,-6.09279 21.60547,-14.36328 9.86661,-9.65376 20.6803,-23.25695 35.89844,-45.16211 3.80522,-5.47728 16.39953,-24.46839 18.80078,-28.34961 10.85704,-17.54855 22.31076,-43.22407 27.51758,-61.68555 7.41748,-26.29966 5.44971,-48.45698 -5.78711,-65.14648 -6.52259,-9.68767 -16.83334,-17.33832 -28.55079,-21.18555 -6.41946,-2.10773 -14.66116,-3.29348 -20.22265,-2.9082 -11.05844,0.76609 -22.70361,6.40797 -34.9043,16.9082 l -2.94336,2.53321 -3.6582,-3.56836 c -6.06439,-5.91594 -10.46607,-9.19976 -16.36328,-12.20704 -6.33726,-3.23168 -11.20994,-4.39062 -18.46485,-4.39062 -7.25335,0 -12.82075,0.89884 -19.63476,3.16602 -21.75938,7.23987 -36.034313,25.14238 -39.179693,49.13671 -0.9322,7.11121 -0.488959,18.07516 1.050781,25.99805 3.75693,19.33182 12.592948,37.30056 28.466802,57.88867 10.13287,13.14215 25.66486,30.0858 29.41015,32.08203 6.49749,3.46311 13.83769,2.43665 18.94336,-2.65039 5.00787,-4.98954 6.19224,-12.25981 3.03125,-18.60937 -0.49229,-0.98889 -2.18296,-3.10527 -4.26562,-5.33985 -17.02109,-18.26273 -26.14997,-29.82394 -33.86523,-42.88671 -9.68123,-16.39137 -13.60215,-34.72299 -10.11329,-47.28516 3.13385,-11.28392 11.19538,-18.00865 23.26758,-19.41211 3.59469,-0.41791 5.85861,-0.22303 8.75195,0.75586 5.05254,1.7094 11.69984,6.92244 15.09766,11.83789 l 0.88867,1.28516 -0.70312,2.59179 c -2.46182,9.08481 -2.87574,16.66301 -1.20899,22.0918 2.32792,7.58227 8.62411,13.68708 15.32227,14.85352 8.40567,1.46378 17.82152,-7.69085 19.76562,-19.2168 0.61049,-3.61936 -0.0846,-10.47051 -1.66601,-16.44922 l -0.74414,-2.81445 1.67773,-1.90821 c 3.39708,-3.86933 9.99474,-8.43062 14.96875,-10.34961 4.4389,-1.71254 6.82857,-2.16754 10.36133,-1.9707 12.09629,0.67401 20.43922,7.82503 23,19.71094 0.83258,3.86442 0.74954,13.51706 -0.16016,18.56445 -3.72037,20.64228 -17.60769,51.3158 -35.66601,78.77735 -10.98101,16.69899 -21.08924,29.58483 -36.83594,46.95312 -6.78854,7.48761 -8.1757,8.74112 -11.2832,10.19531 -3.62086,1.6944 -4.7287,1.79388 -19.90625,1.79688 -7.59,10e-4 -15.33341,-0.13284 -17.20899,-0.29883 -8.53689,-0.75564 -14.11267,-3.17263 -18.83007,-8.16016 -3.50324,-3.7038 -6.03924,-8.5879 -7.906254,-15.23242 -7.662485,-27.27003 -18.103997,-49.05573 -30.914067,-64.5 C 58.318659,267.85763 52.332622,258.62556 46.540112,246.68272 31.398852,215.46491 27.692134,179.68721 36.085034,145.79209 40.624144,127.46066 48.671541,110.08235 59.833081,94.512796 68.632421,82.23834 81.773455,69.099256 94.047925,60.299906 144.44681,24.169845 211.45773,22.681979 263.14363,56.545999 c 28.34814,18.57337 49.50436,45.977041 60.16992,77.937501 3.64572,10.92451 5.81383,21.12242 7.10938,33.44922 0.52195,4.96344 0.52426,22.86777 0.004,27.90039 -2.21758,21.4484 -7.57429,40.62544 -16.39258,58.69336 -5.77662,11.83576 -11.06022,19.98444 -19.58008,30.19531 -4.47524,5.36348 -6.20698,7.68665 -9.48828,12.7168 -12.59841,19.31305 -21.40286,42.93228 -25.53125,68.49414 -1.53871,9.52731 -2.56336,21.43491 -2.56836,29.84961 -0.004,5.84637 -0.33362,7.83924 -1.78516,10.80078 -8.10783,16.54218 -43.48002,28.34678 -96.16406,32.0918 -9.55535,0.67923 -18.06505,1.02361 -30.30078,1.22656 -12.14993,0.20151 -13.29389,0.34013 -16.46485,2 -2.46543,1.29057 -5.55064,4.42899 -6.74609,6.86328 -1.00286,2.04213 -1.82812,5.34454 -1.82812,7.31836 0,1.97865 0.82652,5.27661 1.83593,7.33203 1.18905,2.42127 4.23404,5.51252 6.73438,6.83594 3.32274,1.75872 3.8487,1.80273 24.71875,2.00781 49.99587,0.49125 76.59954,2.62634 93.55469,7.50977 9.24003,2.66133 15.46456,6.49339 17.71484,10.90429 0.59201,1.16043 0.6097,1.33316 0.19922,2.12696 -2.62001,5.06652 -15.68308,8.70555 -37.21875,10.36718 -12.48097,0.963 -20.22594,1.14666 -56.69922,1.34571 -34.87921,0.19035 -37.6157,0.24109 -39.15039,0.74023 -4.43461,1.44228 -7.90145,4.35778 -9.87891,8.3086 -2.4812,4.95729 -2.31942,10.16916 0.47461,15.30273 1.00157,1.8402 4.3975,5.10145 6.33008,6.08008 3.6259,1.83609 2.64165,1.76487 27.82422,2.00976 26.1847,0.25461 36.55177,0.66574 49.20117,1.95118 32.16014,3.26814 49.86605,11.59977 62.01563,29.17773 1.17825,1.70472 2.81698,3.68769 3.64062,4.4082 1.85953,1.62669 4.70732,3.0514 7.16797,3.58594 0.66121,0.1436 1.06716,0.2356 1.11914,0.29688 l 4.50781,0 c 0.0536,-0.0613 0.46104,-0.15307 1.12305,-0.29688 7.34108,-1.59471 12.67578,-8.1971 12.67578,-15.68945 0,-3.95772 -0.88895,-6.41493 -3.92383,-10.85547 -5.58232,-8.16789 -13.61437,-16.43738 -21.44726,-22.08203 l -0.87891,-0.63477 2.72852,-1.37109 c 6.8168,-3.42576 13.43314,-8.98192 16.86523,-14.16211 2.25557,-3.40443 4.4647,-8.00922 5.14648,-10.72461 1.17643,-4.68546 1.56802,-8.46399 1.20118,-11.60547 -0.44077,-3.77451 -1.3459,-7.92065 -2.0625,-9.44531 -0.31651,-0.67338 -1.05019,-2.26794 -1.63086,-3.54492 -3.07776,-6.76833 -8.45536,-12.82225 -15.56446,-17.51953 -2.47733,-1.63689 -7.82984,-4.46946 -11.60742,-6.14454 l -1.02148,-0.45312 4.47265,-2.38086 c 4.77484,-2.54151 10.93851,-6.51474 14.3711,-9.26172 7.74363,-6.19697 14.20355,-14.54532 17.43945,-22.54101 2.49234,-6.1584 3.28622,-11.24976 3.55078,-22.77735 0.57033,-24.8514 5.95047,-47.92086 15.76172,-67.57617 4.53528,-9.08574 8.56121,-15.25977 14.42969,-22.125 29.04792,-33.98178 45.3944,-82.527 43.74023,-129.90039 -1.42653,-40.85116 -16.23065,-79.136852 -42.86141,-110.849612 -4.34986,-5.17993 -16.70402,-17.514059 -21.75977,-21.724609 -29.45964,-24.53474 -64.10861,-38.8639374 -102,-42.17968775 -4.64578,-0.40653 -12.87806,-0.5974442 -19.35547,-0.5058593 z"
     id="path4318"
     inkscape:connector-curvature="0" />
  <path
     style="fill:#000000"
     d="m 1651.8448,293.03233 c -19.2503,-0.14413 -33.4486,9.10324 -42.5312,27.70312 -4.2401,8.68329 -6.7666,18.33816 -7.8106,29.84961 -0.5362,5.9127 -0.4594,19.32869 0.1387,24.27539 1.987,16.43262 7.5829,28.86232 17.1719,38.13868 8.6063,8.32569 19.1532,12.28904 32.6601,12.27734 13.5475,-0.0118 24.2335,-4.4476 32.7168,-13.58398 l 2.2813,-2.45704 -0.1387,9.44922 c -0.1007,6.91785 -0.2661,10.12591 -0.6172,11.96875 -2.6552,13.93715 -9.1227,21.05407 -21.3418,23.48243 -3.7956,0.75432 -11.9233,0.81325 -16.7421,0.12304 -7.2426,-1.03743 -15.6516,-3.42393 -21.0196,-5.9668 l -2.7773,-1.31445 -2.9063,8.73438 c -1.5983,4.80423 -2.9043,8.87988 -2.9043,9.05664 0,0.35952 3.4593,2.11204 6.7129,3.40039 7.3125,2.89572 17.8042,5.31141 26.1367,6.01953 l 0,0 c 1.65,0.14028 5.1206,0.1963 7.7129,0.125 12.6089,-0.34692 22.1322,-2.99265 30.3691,-8.4375 3.9196,-2.59104 9.2216,-7.87863 11.8223,-11.79102 4.5635,-6.86502 7.3702,-15.09541 8.4414,-24.75 0.1902,-1.7142 0.3027,-26.65929 0.3027,-68.32421 l 0,-65.625 -9.7129,0 -9.7109,0 -0.1738,1.125 c -0.096,0.61875 -0.5251,3.89289 -0.9532,7.27539 -0.428,3.3825 -0.8788,6.40094 -1.0019,6.70898 -0.1901,0.4755 -0.422,0.29523 -1.543,-1.19922 -5.0418,-6.72165 -12.7158,-12.08052 -20.5527,-14.35156 -4.0754,-1.181 -7.3543,-1.68529 -12.1524,-1.86914 -0.6314,-0.0242 -1.2579,-0.0383 -1.8789,-0.043 z m 5.6231,18.85352 c 11.6598,0 20.5052,4.80461 27.1601,14.7539 l 1.795,2.68555 0,29.46094 0,29.46093 -1.3243,2.24414 c -4.5838,7.7577 -11.3187,13.05171 -19.1074,15.01954 -3.2373,0.81789 -12.0691,1.06837 -15.6211,0.44335 -10.6211,-1.86888 -17.8643,-8.14889 -22.2929,-19.33007 -2.648,-6.6858 -3.75,-13.77706 -3.75,-24.03907 0,-14.00562 1.7903,-23.7036 6.0078,-32.62695 5.8588,-12.39624 14.3805,-18.07226 27.1328,-18.07226 z"
     id="path4316"
     inkscape:connector-curvature="0" />
  <path
     style="fill:#000000"
     d="m 880.77356,425.70608 c -7.8792,-0.79056 -12.4881,-1.60761 -17.8349,-3.16179 -24.9702,-7.25823 -45.1441,-28.63521 -52.7622,-55.90875 -2.7699,-9.91677 -3.664,-16.89066 -3.8658,-30.15564 -0.2635,-17.31324 1.0861,-27.78375 5.1616,-40.04436 9.2934,-27.95748 30.2927,-47.39277 57.1854,-52.92616 7.1687,-1.475 9.5331,-1.67086 20.0659,-1.66212 10.7932,0.009 13.6776,0.2588 21.1383,1.83103 13.6243,2.87113 26.5556,9.33798 36.6867,18.34674 l 2.175,1.93405 0,16.31323 0,16.31323 -8.5144,0 -8.5144,0 -0.3135,-1.275 c -0.1724,-0.70125 -1.4848,-6.2025 -2.9164,-12.225 -2.108,-8.86771 -2.7254,-11.05383 -3.2471,-11.49599 -3.0745,-2.60585 -10.8273,-6.69295 -15.7044,-8.27901 -7.9872,-2.59751 -19.0164,-3.346 -28.8898,-1.96061 -16.3645,2.29616 -28.7885,10.12919 -37.77,23.81304 -4.6564,7.09432 -7.7623,14.41143 -9.8784,23.27257 -3.2732,13.7058 -3.5233,33.44796 -0.6098,48.14199 4.7807,24.11181 18.4943,41.68518 37.19,47.65746 7.1954,2.29854 14.5441,3.07365 23.8906,2.51985 11.8179,-0.7002 19.9742,-2.82279 29.1435,-7.5843 l 3.7841,-1.96503 0.077,-19.56858 c 0.061,-15.50253 0,-19.59501 -0.3,-19.6959 -0.2075,-0.0701 -5.7097,-0.33621 -12.2272,-0.59151 -6.5175,-0.25527 -12.9637,-0.54372 -14.325,-0.64101 l -2.475,-0.17682 0,-8.82309 0,-8.82306 26.85,0 26.85,0 0,32.05077 0,32.0508 -2.025,1.93797 c -5.6211,5.37954 -16.193,11.82201 -25.0991,15.29529 -6.047,2.35824 -14.0876,4.16931 -22.5259,5.07369 -3.0448,0.32631 -18.2029,0.63246 -20.4,0.41202 z"
     id="path4312"
     inkscape:connector-curvature="0" />
  <path
     style="fill:#000000"
     d="m 1523.4425,293.046 c -4.3057,0.0226 -9.1424,0.27204 -12.2188,0.69141 -12.5113,1.70555 -25.0861,6.55801 -33.9746,13.11133 l -2.0254,1.49414 0,12.27148 0,12.27149 8.9805,0 c 8.2938,-1e-5 8.9913,-0.0405 9.1328,-0.5254 0.084,-0.28875 0.6415,-3.22539 1.2383,-6.52539 1.2309,-6.80598 1.122,-6.59424 4.5527,-8.85351 4.1183,-2.71212 10.0659,-4.68704 16.3028,-5.41211 4.3881,-0.51012 12.0268,-0.21663 15.2129,0.58398 7.3134,1.83783 12.6865,5.9451 15.5273,11.86914 2.1586,4.50162 2.3202,5.57688 2.4707,16.55274 l 0.1309,9.64062 -16.1485,0.15235 c -12.2197,0.11532 -17.1306,0.26982 -20.1757,0.63672 -25.343,3.05355 -40.0596,14.31789 -42.336,32.40234 -0.4397,3.49398 -0.2364,9.94011 0.4297,13.5918 2.9651,16.25451 14.0786,25.87904 32.2813,27.95312 3.6907,0.42051 11.007,0.36617 14.0996,-0.10351 7.6035,-1.15476 14.8018,-4.36398 21.9082,-9.76758 2.6151,-1.98843 7.2905,-6.44784 8.9258,-8.51367 l 0.9238,-1.16602 0.1484,1.01758 c 0.082,0.55947 0.3593,2.8389 0.6153,5.0664 0.256,2.2275 0.7581,5.70336 1.1171,7.72461 l 0.6543,3.67579 15.2578,0 15.2598,0 -0.08,-7.41797 -0.08,-7.41797 -4.5977,-0.6543 c -2.5287,-0.36018 -4.6875,-0.74618 -4.7988,-0.85742 -0.1113,-0.11127 -0.281,-17.70649 -0.377,-39.10156 -0.1704,-38.04009 -0.1884,-38.96496 -0.8027,-41.75196 -1.8194,-8.25291 -4.7266,-13.90309 -9.7871,-19.02343 -7.6261,-7.71622 -17.8936,-12.14135 -31.086,-13.39844 -1.7049,-0.16247 -4.0982,-0.23035 -6.6816,-0.2168 z m 10.3555,73.13867 14.9257,0 0,10.47657 0,10.47461 -1.5371,2.29687 c -3.6512,5.45898 -10.3271,10.62307 -17.3632,13.42969 -3.116,1.24293 -5.3304,1.86112 -8.8145,2.46289 l 0,-0.002 c -3.7734,0.65172 -11.247,0.5856 -14.6445,-0.13086 -6.9191,-1.45908 -11.3671,-5.50772 -12.8692,-11.70899 -0.6483,-2.67597 -0.5082,-7.54872 0.293,-10.19922 2.1421,-7.08579 8.7634,-13.04672 17.2852,-15.55859 4.7282,-1.39368 6.8805,-1.54102 22.7246,-1.54102 z"
     id="path4310"
     inkscape:connector-curvature="0" />
  <path
     style="fill:#000000"
     d="m 1783.8712,424.8476 c -16.1773,-2.3169 -27.5551,-11.88339 -32.6545,-27.45585 -1.2024,-3.67182 -2.117,-7.7217 -2.9107,-12.88887 -0.4185,-2.72436 -0.5107,-7.90773 -0.6595,-37.06227 l -0.1729,-33.8949 -7.275,-1.63425 -7.275,-1.63422 0,-7.44585 0,-7.44585 18.8874,0 18.8875,0 0.1061,42.375 c 0.095,37.833 0.1601,42.73182 0.6106,45.70401 1.0786,7.11633 2.9439,12.35133 5.5804,15.66186 2.6192,3.28863 6.9648,5.72652 12.0903,6.78267 2.72,0.56043 9.8055,0.64182 13.3202,0.15297 11.1633,-1.55268 19.8611,-7.39554 24.564,-16.50123 l 1.3559,-2.62521 -0.076,-36.68628 -0.076,-36.68628 -2.55,-0.50274 c -1.4025,-0.27654 -5.2163,-1.01085 -8.475,-1.63185 l -5.925,-1.12905 0,-7.45695 0,-7.45692 20.1,0 20.1,0 0,54.68379 0,54.68376 7.275,1.64124 7.275,1.64121 0.08,7.425 0.08,7.425 -17.8047,0 -17.8046,0 -0.665,-8.625 c -0.3657,-4.74375 -0.7324,-8.94423 -0.8149,-9.33444 -0.1329,-0.62832 -0.3072,-0.47403 -1.5257,1.35 -3.4202,5.1201 -7.336,9.10572 -11.9456,12.15849 -4.5146,2.98992 -8.8821,4.81197 -14.4,6.00753 -3.5991,0.77982 -13.1292,1.00314 -17.3024,0.40548 z"
     id="path4306"
     inkscape:connector-curvature="0" />
  <path
     style="fill:#000000"
     d="m 1939.7765,293.14366 c -5.6626,-0.005 -7.0701,0.0899 -9.916,0.66601 -10.5667,2.13922 -19.098,6.95839 -27.295,15.41797 -9.2002,9.495 -14.6161,20.3637 -16.9375,33.99024 -1.4263,8.35458 -1.4249,23.58005 0,32.24609 4.4726,27.20208 22.6285,46.1041 47.2461,49.1875 1.485,0.186 3.1047,0.39344 3.5996,0.46094 l 0,0 c 2.083,0.28413 15.4896,-0.11865 18.6503,-0.56055 9.2612,-1.29489 18.5732,-4.75513 26.0489,-9.68164 3.1075,-2.04789 6.4492,-4.75758 6.4492,-5.22852 0,-0.17718 -1.9802,-3.61585 -4.4024,-7.64062 -3.9058,-6.4902 -4.4616,-7.27471 -4.9042,-6.94141 -0.2744,0.20673 -1.6997,1.28321 -3.168,2.39258 -6.1665,4.65882 -14.3087,7.91148 -22.7188,9.07617 -14.6517,2.02911 -24.6648,-0.49092 -32.1816,-8.09961 -5.5089,-5.57625 -9.4261,-13.81027 -11.082,-23.29882 -0.6815,-3.91701 -1.0819,-9.88486 -0.6914,-10.35547 0.2606,-0.31398 8.1891,-0.38867 41.5351,-0.38867 l 41.2149,0 0,-10.27735 c 0,-7.23663 -0.1355,-11.41712 -0.4532,-14.13281 -2.6248,-22.43889 -14.102,-38.35304 -31.7968,-44.08399 -6.5022,-2.10591 -10.9306,-2.74004 -19.2012,-2.74804 z m -1.2363,18.13476 c 4.6534,-0.0985 10.0002,0.79723 13.5957,2.41797 9.8702,4.44915 15.9882,15.77763 15.9882,29.60547 l 0,3.08399 -29.3828,0 c -18.5395,0 -29.4477,-0.10655 -29.5605,-0.28907 -0.098,-0.15912 0.027,-1.48127 0.2793,-2.9375 2.9001,-16.71522 12.5539,-28.9802 24.748,-31.4414 1.3069,-0.26379 2.7809,-0.40662 4.3321,-0.43946 z"
     id="path4304"
     inkscape:connector-curvature="0" />
  <path
     style="fill:#000000"
     d="m 452.59345,415.46054 0.0801,-7.725 9.9,-1.70943 c 5.445,-0.9402 9.93375,-1.71645 9.975,-1.725 0.0412,-0.009 0.075,-31.72482 0.075,-70.48059 0,-66.85794 -0.027,-70.47193 -0.525,-70.6004 -0.28875,-0.0745 -4.81113,-0.86646 -10.04976,-1.75999 l -9.52473,-1.62459 -2.7e-4,-7.875 -2.4e-4,-7.875 68.7,0 68.7,0 0,21.6 0,21.6 -10.31595,0 -10.31592,0 -0.17304,-1.275 c -0.0952,-0.70125 -0.52335,-5.7975 -0.95151,-11.325 -0.42816,-5.5275 -0.84069,-10.35375 -0.91674,-10.725 l -0.13827,-0.675 -35.2458,0 -35.24577,0 0.0765,28.875 0.0765,28.875 34.275,0.0763 34.275,0.0763 0,9.59871 0,9.59874 -34.35,0 -34.35,0 0,31.95 0,31.95 35.98641,0 35.98641,0 0.15645,-0.975 c 0.086,-0.53625 0.49638,-5.3625 0.91182,-10.725 0.41544,-5.3625 0.83193,-10.32375 0.92553,-11.025 l 0.17013,-1.275 10.33164,0 10.33161,0 0,21.45 0,21.45 -69.45507,0 -69.45507,0 0.0801,-7.725 z"
     id="path4300"
     inkscape:connector-curvature="0" />
  <path
     style="fill:#000000"
     d="m 697.1573,244.0792 -31.01367,80.17969 c -17.0575,44.09832 -31.18152,80.51524 -31.38672,80.92774 -0.3567,0.71697 -0.65404,0.79047 -6.77734,1.65234 l -6.40625,0.90039 -0.0801,7.72461 -0.0801,7.72266 25.66016,0 25.66016,0 -0.0801,-7.70508 -0.0801,-7.70703 -6.55859,-1.12891 c -3.6077,-0.62061 -6.62036,-1.18707 -6.69336,-1.25976 -0.0728,-0.0728 2.45508,-7.13433 5.61718,-15.69141 3.1622,-8.55705 5.88368,-15.92906 6.04688,-16.38281 l 0.29687,-0.82422 35.78907,0 c 33.8047,0 35.79859,0.0295 35.99609,0.52539 1.1211,2.81562 11.54903,32.28085 11.45703,32.37305 -0.0671,0.0671 -3.0769,0.63176 -6.6875,1.2539 l -6.56445,1.13086 -0.0801,7.70703 -0.0801,7.70899 25.81055,0 25.81055,0 -0.0801,-7.71094 -0.0801,-7.70899 -6.5,-0.89648 -6.49805,-0.89453 -30.75,-80.86914 -30.75,-80.86914 -10.45898,-0.0801 -10.45899,-0.0781 z m 10.24024,31.20899 c 0.1783,-10e-4 6.50936,17.10773 14.06836,38.02148 7.559,20.91375 13.80681,38.19414 13.88281,38.40039 0.1107,0.2983 -5.63385,0.375 -28.09375,0.375 -15.5277,0 -28.23828,-0.10086 -28.23828,-0.22461 -0.0192,-0.67752 28.10976,-76.57026 28.38086,-76.57226 z"
     id="path4298"
     inkscape:connector-curvature="0" />
  <path
     style="fill:#000000"
     d="m 999.12356,412.75343 0,-10.43211 5.76474,-0.87993 c 5.1121,-0.78033 5.8569,-0.96633 6.5784,-1.64292 0.4475,-0.41961 8.2656,-9.80793 17.3736,-20.86293 9.1079,-11.055 16.7431,-20.31081 16.9669,-20.56848 0.3553,-0.40884 -1.7146,-3.02493 -16.2593,-20.55 -9.1665,-11.04483 -16.8373,-20.25708 -17.0462,-20.47164 -0.2089,-0.21459 -3.0007,-0.82695 -6.2039,-1.36086 l -5.8242,-0.97071 -0.079,-10.56414 -0.079,-10.56417 29.1039,0 29.1038,0 0,10.14399 0,10.14402 -4.725,0.53706 c -5.7416,0.65262 -6.675,0.79857 -6.675,1.0437 0,0.3441 18.9045,24.18123 19.1774,24.18123 0.3248,0 19.0402,-24.13242 18.8573,-24.31533 -0.071,-0.0713 -2.7183,-0.42723 -5.8822,-0.79086 l -5.7525,-0.66117 0,-10.14132 0,-10.14132 29.2538,0 29.2539,0 -0.079,10.55625 -0.079,10.55628 -4.8,0.82917 c -2.64,0.45603 -5.2352,0.90867 -5.7671,1.00584 -0.8507,0.15543 -2.9592,2.62866 -17.5083,20.53761 -9.0975,11.19849 -16.5082,20.47428 -16.4682,20.61288 0.1502,0.51909 34.54,42.10542 35.0311,42.36165 0.2819,0.14709 3.0437,0.64773 6.1375,1.11255 l 5.625,0.84507 0,10.44135 0,10.44135 -29.55,0 -29.55,0 0,-10.00137 0,-10.00137 5.8392,-0.68835 c 5.4094,-0.63771 5.8123,-0.72663 5.475,-1.20795 -0.2003,-0.28575 -4.6802,-6.12516 -9.9554,-12.97647 l -9.5911,-12.4569 -1.5507,1.99119 c -0.8528,1.09518 -5.4013,6.91872 -10.1076,12.94122 -6.7142,8.59191 -8.4495,10.98858 -8.0582,11.1291 0.2744,0.0985 2.5576,0.42228 5.0738,0.71949 l 4.575,0.54039 0,10.00551 0,10.00551 -28.8,0 -28.80004,0 0,-10.43211 z"
     id="path4294"
     inkscape:connector-curvature="0" />
  <path
     style="fill:#000000"
     d="m 1212.7237,251.26475 0,7.45508 0,7.45508 9.5235,1.63086 9.5254,1.6289 0.076,67.65821 0.076,67.6582 -9.6015,1.63477 -9.5997,1.63476 0,7.43164 0,7.4336 30.75,0 30.75,0 0,-7.44336 0,-7.44336 -9.5253,-1.63086 -9.5254,-1.63282 0,-25.3496 0,-25.34961 23.0996,-0.17188 c 25.286,-0.18654 25.2687,-0.1841 33.1504,-2.11523 6.6689,-1.63398 12.177,-3.99919 17.2636,-7.41016 13.606,-9.12411 20.836,-23.51686 20.836,-41.48047 0,-11.70953 -2.6043,-20.93605 -8.336,-29.52344 -2.4587,-3.68366 -7.8067,-9.11992 -11.6132,-11.80468 -5.1389,-3.62452 -12.0426,-6.62308 -19.0508,-8.27539 -7.9868,-1.8831 -5.2442,-1.78561 -53.625,-1.89258 l -44.1739,-0.0977 z m 42.3008,18.28906 22.125,0.10938 22.125,0.10742 3.2032,0.78711 c 6.1083,1.49952 10.4239,3.79274 14.2265,7.55664 5.5756,5.51888 8.6595,12.37739 9.4844,21.0957 1.2252,12.95103 -3.8364,24.95955 -13.1231,31.13868 -4.1711,2.77539 -8.5052,4.26817 -14.7832,5.09179 -2.7027,0.35458 -7.4328,0.44532 -23.3242,0.44532 l -19.9336,0 0,-33.16602 0,-33.16602 z"
     id="path4292"
     inkscape:connector-curvature="0" />
  <path
     style="fill:#000000"
     d="m 1368.1236,415.45835 0,-7.42719 9.6,-1.64094 9.6,-1.64091 0,-45.60756 0,-45.60759 -9.6,-1.62522 -9.6,-1.62525 0,-7.44909 0,-7.44906 19.9298,0 c 18.7266,0 19.9383,0.0317 20.072,0.525 0.078,0.28875 0.5881,4.33875 1.1331,9 0.545,4.66125 1.0661,8.475 1.1579,8.475 0.092,0 0.6065,-0.73482 1.1437,-1.63296 2.8366,-4.74246 7.5801,-9.99195 11.5818,-12.81724 6.2327,-4.40054 12.8192,-6.2627 20.673,-5.84474 3.5165,0.18714 7.5041,0.79038 7.9104,1.19667 0.2089,0.20884 -2.6197,20.742 -2.9255,21.23676 -0.1206,0.19509 -2.0064,0.18792 -5.513,-0.021 -2.9314,-0.17463 -6.6985,-0.31575 -8.3715,-0.31359 -10.2973,0.0135 -18.3014,4.87179 -23.2703,14.12499 l -1.2238,2.27889 0.076,36.57111 0.076,36.57108 9.6,1.65 9.6,1.65 0.08,7.425 0.08,7.425 -30.9052,0 -30.9053,0 0,-7.42719 z"
     id="path4218"
     inkscape:connector-curvature="0" />
</svg>
